<?xml version="1.0" encoding="UTF-8" standalone="no"?>
<!-- Created with Inkscape (http://www.inkscape.org/) -->

<svg
   xmlns:dc="http://purl.org/dc/elements/1.1/"
   xmlns:cc="http://creativecommons.org/ns#"
   xmlns:rdf="http://www.w3.org/1999/02/22-rdf-syntax-ns#"
   xmlns:svg="http://www.w3.org/2000/svg"
   xmlns="http://www.w3.org/2000/svg"
   xmlns:sodipodi="http://sodipodi.sourceforge.net/DTD/sodipodi-0.dtd"
   xmlns:inkscape="http://www.inkscape.org/namespaces/inkscape"
   width="362mm"
   height="114mm"
   viewBox="0 0 362 114"
   version="1.1"
   id="svg9252"
   sodipodi:docname="drawing-2.svg"
   inkscape:version="0.92.5 (2060ec1f9f, 2020-04-08)"
   style="enable-background:new">
  <defs
     id="defs9246">
    <filter
       inkscape:collect="always"
       style="color-interpolation-filters:sRGB"
       id="filter20454">
      <feBlend
         inkscape:collect="always"
         mode="darken"
         in2="BackgroundImage"
         id="feBlend20456" />
    </filter>
  </defs>
  <sodipodi:namedview
     id="base"
     pagecolor="#ffffff"
     bordercolor="#666666"
     borderopacity="1.0"
     inkscape:pageopacity="0.0"
     inkscape:pageshadow="2"
     inkscape:zoom="0.35"
     inkscape:cx="561.42857"
     inkscape:cy="195.5256"
     inkscape:document-units="mm"
     inkscape:current-layer="layer1"
     showgrid="false"
     inkscape:window-width="1366"
     inkscape:window-height="662"
     inkscape:window-x="0"
     inkscape:window-y="27"
     inkscape:window-maximized="1" />
  <metadata
     id="metadata9249">
    <rdf:RDF>
      <cc:Work
         rdf:about="">
        <dc:format>image/svg+xml</dc:format>
        <dc:type
           rdf:resource="http://purl.org/dc/dcmitype/StillImage" />
        <dc:title></dc:title>
      </cc:Work>
    </rdf:RDF>
  </metadata>
  <g
     inkscape:label="Layer 1"
     inkscape:groupmode="layer"
     id="layer1"
     transform="translate(0,-183)"
     style="display:inline;filter:url(#filter20454)">
    <g
       id="g20428"
       transform="matrix(0.15867046,0,0,0.16332825,5.7924083,202.59687)">
      <g
         id="g76757"
         transform="matrix(1.5674619,0,0,1.6124599,-164.64234,-167.65901)">
        <path
           id="path76706"
           d="m 116.69922,241 h 43.58984 L 181.5,219.78906 v -17.57812 l -64.22266,-64.22266 c -4.53125,2.10156 -8.85546,4.78906 -12.57812,8.50781 l -3,3.00391 V 226 c 0,8.39844 6.89844,15 15,15 z m 0,0"
           inkscape:connector-curvature="0" />
        <path
           id="path76708"
           d="M 181.5,292.21094 160.28906,271 h -43.58984 c -8.10156,0 -15,6.59766 -15,15 v 76.5 l 3,3 c 3.72266,3.72266 8.04687,6.40625 12.57812,8.51172 L 181.5,309.78906 Z m 0,0"
           inkscape:connector-curvature="0" />
        <path
           id="path76712"
           d="m 396.29687,241 c 8.10157,0 15,-6.60156 15,-15 v -76.5 l -3,-3.00391 c -3.72265,-3.71875 -8.04296,-6.40625 -12.57421,-8.50781 L 331.5,202.21094 v 17.57422 L 352.71094,241 Z m 0,0"
           inkscape:connector-curvature="0" />
        <path
           id="path76714"
           d="m 286.5,211 c -3.98438,0 -7.79297,-1.58203 -10.60547,-4.39453 L 256.5,187.21094 237.10156,206.60547 C 234.29297,209.41797 230.48437,211 226.5,211 h -15 v 15 c 0,3.98437 -1.58203,7.79297 -4.39844,10.60547 L 187.71094,256 l 19.39453,19.39453 c 2.8125,2.8125 4.39453,6.6211 4.39453,10.60547 v 15 h 15 c 3.98437,0 7.79297,1.58203 10.60156,4.39453 L 256.5,324.78906 275.89453,305.39453 C 278.70703,302.58203 282.51172,301 286.5,301 h 15 v -15 c 0,-3.98438 1.58203,-7.79297 4.39453,-10.60547 L 325.28906,256 305.89062,236.60547 C 303.08203,233.79297 301.5,229.98437 301.5,226 v -15 z m 0,0"
           inkscape:connector-curvature="0" />
        <path
           id="path76716"
           d="m 408.29687,365.5 3,-3.00391 V 286 c 0,-8.40234 -6.89843,-15 -15,-15 H 352.71094 L 331.5,292.21094 v 17.57422 l 64.21875,64.22265 c 4.53516,-2.10156 8.85547,-4.78906 12.57812,-8.50781 z m 0,0"
           inkscape:connector-curvature="0" />
        <path
           id="path76718"
           d="m 271.5,116.19922 v 43.58594 L 292.71094,181 h 17.57812 l 64.21875,-64.22266 C 372.40625,112.24609 369.71875,107.92188 366,104.19922 l -3.00391,-3 H 286.5 c -8.40234,0 -15,6.89844 -15,15 z m 0,0"
           inkscape:connector-curvature="0" />
        <path
           id="path76720"
           d="m 366,407.79687 c 3.71875,-3.72265 6.40625,-8.04296 8.51172,-12.57812 L 310.28906,331 H 292.71094 L 271.5,352.21094 v 43.58593 c 0,8.10157 6.59766,15 15,15 H 363 Z m 0,0"
           inkscape:connector-curvature="0" />
        <path
           id="path76724"
           d="M 220.28906,181 241.5,159.78906 v -43.58984 c 0,-8.10156 -6.60156,-15 -15,-15 H 150 l -3.00391,3 c -3.71875,3.72266 -6.40625,8.04297 -8.50781,12.57812 L 202.71094,181 Z m 0,0"
           inkscape:connector-curvature="0" />
        <path
           id="path76728"
           d="m 150,410.79687 h 76.5 c 8.39844,0 15,-6.89843 15,-15 V 352.21094 L 220.28906,331 h -17.57812 l -64.22266,64.22266 c 2.10156,4.53125 4.78906,8.85156 8.51172,12.57812 z m 0,0"
           inkscape:connector-curvature="0" />
      </g>
    </g>
    <path
       style="font-style:normal;font-weight:normal;font-size:40px;line-height:1.25;font-family:sans-serif;letter-spacing:0px;word-spacing:0px;fill:#000000;fill-opacity:0.94117647;stroke:none;stroke-width:0.4681417"
       d="m 200.89229,199.48697 c -1.44559,0.0119 -2.68161,0.93592 -3.70738,2.77242 -1.02634,1.75703 -1.53031,3.90713 -1.51186,6.45046 0.0196,2.70229 0.53294,4.92415 1.53947,6.66456 1.00651,1.74042 2.25505,2.60428 3.74583,2.5921 1.49077,-0.0122 2.72674,-0.89669 3.70791,-2.65335 1.02635,-1.75703 1.5298,-3.94673 1.51078,-6.56953 -0.0184,-2.54333 -0.55379,-4.72483 -1.60603,-6.54435 -1.00712,-1.81989 -2.23311,-2.72411 -3.67872,-2.71231 z m -70.67697,0.45855 -2.03259,0.0166 c -0.21491,1.51194 -0.47813,2.58681 -0.78977,3.22523 -0.31219,0.55893 -0.76217,0.84129 -1.34945,0.84609 -0.31622,0.002 -1.65328,-0.62234 -4.01159,-1.8748 -2.3589,-1.33194 -4.62281,-1.98926 -6.79122,-1.97155 -4.60783,0.0377 -8.2287,2.21296 -10.86293,6.5266 -2.58905,4.31327 -3.85633,10.24552 -3.80159,17.79602 0.038,5.2456 0.99768,9.84774 2.87867,13.80655 1.8804,3.87933 4.84344,7.51143 8.88879,10.89617 l 4.56752,3.77766 c 2.9994,2.43947 5.02596,4.64886 6.07938,6.62735 1.05344,1.97848 1.59117,4.51745 1.61364,7.61712 0.0299,4.13291 -0.71372,7.43745 -2.2318,9.91384 -1.51807,2.4764 -3.58753,3.72533 -6.20767,3.74674 -6.86659,0.0562 -11.53604,-8.41069 -14.00845,-25.39998 l -1.96495,0.0161 0.21326,29.44726 1.96496,-0.0161 c 0.3418,-2.70524 1.01005,-4.06207 2.00392,-4.07019 0.45173,-0.003 1.87928,0.66001 4.28336,1.99158 2.44925,1.33121 4.8936,1.98691 7.33304,1.96698 5.01444,-0.041 9.04127,-2.37888 12.07975,-7.01377 3.08308,-4.71473 4.59733,-10.80758 4.54318,-18.2786 -0.0322,-4.45082 -0.76357,-8.69693 -2.19339,-12.73891 -1.42978,-4.04198 -3.23568,-7.00795 -5.41791,-8.89772 l -10.02385,-8.6218 c -2.72777,-2.36222 -4.5954,-4.4531 -5.6025,-6.273 -0.96252,-1.89974 -1.45433,-4.28017 -1.47508,-7.14142 -0.0265,-3.65602 0.60764,-6.56247 1.90215,-8.71911 1.33972,-2.157 3.16164,-3.24476 5.46556,-3.26359 2.75569,-0.0225 5.29823,1.74497 7.62805,5.30268 2.37503,3.55736 4.24529,9.10617 5.61009,16.64596 l 1.89728,-0.0155 z m 203.50375,0.24444 -12.67192,0.10357 0.021,2.86115 c 2.17071,0.3002 3.27138,2.59654 3.3025,6.8884 l 0.44063,60.80137 c 0.0322,4.45082 -1.03467,6.84357 -3.20074,7.1792 l 0.021,2.86173 16.1953,-0.13281 -0.021,-2.86115 c -1.58402,-0.38448 -2.58217,-0.97228 -2.9945,-1.76374 -0.36716,-0.79184 -0.56066,-2.57875 -0.58081,-5.3605 l -0.0984,-13.59074 1.53787,-2.87432 6.55301,15.92293 c 1.10437,2.77291 1.65929,4.55656 1.66504,5.35134 0.009,1.35114 -0.93322,2.11423 -2.82939,2.2887 l 0.0205,2.86113 15.8564,-0.12936 -0.0205,-2.86173 c -0.63243,0.006 -1.20116,-0.58592 -1.70671,-1.77404 l -13.37772,-31.84297 c 3.34258,-6.30652 5.75267,-10.38007 7.23017,-12.22026 1.5227,-1.84057 3.34418,-3.00809 5.46392,-3.50231 l -0.0199,-2.74207 -14.50097,0.11849 0.0194,2.74208 c 0.18129,0.078 0.54368,0.1941 1.08697,0.34863 0.58783,0.0747 0.99521,0.19094 1.22223,0.34805 0.22646,0.0776 0.49891,0.23414 0.81684,0.46999 0.31738,0.15638 0.54526,0.43263 0.68368,0.82892 0.13782,0.31681 0.20819,0.71384 0.21166,1.19071 0.009,1.35114 -0.45351,2.86508 -1.3901,4.54189 l -8.56287,15.33101 z m -19.04147,0.15571 -12.87486,0.10535 0.021,2.86114 c 2.30623,0.29909 3.47493,2.59425 3.50604,6.88611 l 0.44063,60.80137 c 0.0322,4.45083 -1.10266,6.84475 -3.40424,7.18149 l 0.021,2.86115 16.19529,-0.13223 -0.021,-2.86115 c -2.21413,-0.0614 -3.33833,-2.43671 -3.37232,-7.12596 z m -56.06716,5.94269 -1.69375,0.0137 c -2.04057,5.18311 -3.86282,9.37072 -5.46608,12.56318 -1.55805,3.19207 -3.43202,6.42644 -5.62199,9.70316 l 0.0232,3.21894 3.5239,-0.0286 0.27986,38.62662 c 0.0282,3.89447 0.72779,6.94902 2.09915,9.16335 1.3714,2.21433 3.23176,3.31198 5.58087,3.29278 2.25875,-0.0185 4.12664,-1.02743 5.60303,-3.02659 1.52095,-2.079 2.96406,-5.5482 4.32936,-10.40787 l -1.70404,-1.29775 c -1.18976,4.14286 -2.46204,6.22013 -3.81729,6.23121 -0.94864,0.008 -1.62988,-0.50372 -2.04395,-1.53363 -0.41463,-1.10938 -0.63066,-2.85591 -0.64792,-5.24027 l -0.26041,-35.88513 6.36956,-0.0521 -0.0379,-5.24543 -6.36953,0.0521 z m -75.28346,0.61481 -1.69427,0.0143 c -2.04059,5.18311 -3.8623,9.37073 -5.46555,12.56317 -1.55806,3.19208 -3.43202,6.42645 -5.62199,9.70318 l 0.0232,3.21893 3.52334,-0.0287 0.2804,38.62664 c 0.0282,3.89446 0.72781,6.94843 2.09918,9.16277 1.37137,2.21433 3.23175,3.31197 5.58083,3.29279 2.25875,-0.0185 4.12614,-1.02687 5.60252,-3.02602 1.52096,-2.07901 2.96406,-5.54878 4.32933,-10.40844 l -1.70347,-1.2972 c -1.18975,4.14288 -2.46204,6.21957 -3.81728,6.23064 -0.94868,0.008 -1.63043,-0.50313 -2.04449,-1.53304 -0.41467,-1.10938 -0.63067,-2.8565 -0.64797,-5.24086 l -0.25982,-35.88455 6.36952,-0.0521 -0.0379,-5.24544 -6.36952,0.0521 z m 99.47489,17.90594 c -3.83988,0.0314 -6.92467,1.44725 -9.2536,4.2482 -2.32894,2.80097 -3.47712,6.42704 -3.44486,10.87786 0.0178,2.46385 0.41631,4.40786 1.19465,5.8322 0.77779,1.34487 1.86689,2.01162 3.26733,2.00018 1.35525,-0.0111 2.45715,-0.65624 3.30629,-1.93492 0.8491,-1.27867 1.26593,-2.95114 1.25093,-5.0176 -0.009,-1.35114 -0.35933,-2.85832 -1.04906,-4.52184 -0.6903,-1.743 -1.03695,-2.81353 -1.03982,-3.21092 -0.009,-1.27166 0.38997,-2.30816 1.19737,-3.10959 0.85198,-0.88128 1.8654,-1.32652 3.03995,-1.33612 1.98769,-0.0163 3.43921,0.80677 4.3548,2.46844 0.91559,1.66167 1.38684,4.32003 1.41335,7.97607 l 0.0627,8.70307 c -0.2699,0.16118 -0.65236,0.36316 -1.14756,0.60567 -1.98022,1.04947 -3.57763,1.93665 -4.79216,2.66192 -1.21455,0.72529 -2.69803,1.77097 -4.45008,3.1365 -1.70683,1.36518 -3.05191,2.72696 -4.03595,4.08622 -0.98404,1.35926 -1.85234,3.11556 -2.60474,5.26776 -0.70783,2.07235 -1.05284,4.34039 -1.03499,6.80423 0.0265,3.65604 0.74861,6.67021 2.16632,9.04313 1.46287,2.37256 3.27871,3.54979 5.44712,3.53208 3.65915,-0.0299 7.2077,-2.84037 10.64584,-8.43232 0.38331,3.01725 0.9861,5.15797 1.80848,6.42298 0.86754,1.26466 2.13714,1.89018 3.80861,1.87652 2.66531,-0.0218 5.1784,-2.30761 7.53984,-6.85747 l -1.03444,-2.49536 -0.66904,1.19816 c -0.1784,0.3194 -0.42593,0.48 -0.74215,0.48258 -0.94864,0.008 -1.42978,-0.9818 -1.44418,-2.96877 L 296.33704,241.032 c -0.0362,-5.00717 -1.28504,-8.97089 -3.74582,-11.89168 -2.41558,-2.92115 -5.67855,-4.36481 -9.78946,-4.33121 z m -55.22598,0.45108 c -4.29165,0.0351 -7.90815,2.84672 -10.84937,8.43461 -2.89661,5.50804 -4.31558,12.31503 -4.25682,20.42188 0.0616,8.50424 1.55805,15.52657 4.48958,21.06647 2.93094,5.46042 6.61003,8.17253 11.03718,8.13635 4.38199,-0.0358 7.99899,-2.80729 10.85045,-8.31495 2.85086,-5.58715 4.24636,-12.51387 4.18645,-20.77967 -0.0605,-8.34529 -1.55648,-15.24827 -4.48741,-20.70869 -2.93153,-5.53989 -6.58812,-8.2918 -10.97006,-8.256 z m -75.28403,0.61541 c -4.29161,0.0351 -7.90814,2.84613 -10.84933,8.43402 -2.89662,5.50804 -4.31505,12.3156 -4.25628,20.42245 0.0616,8.50424 1.55806,15.52657 4.48957,21.06647 2.93095,5.46042 6.61004,8.17253 11.0372,8.13635 4.38194,-0.0358 7.99843,-2.80785 10.84987,-8.31553 2.85086,-5.58715 4.24638,-12.51329 4.18645,-20.77909 -0.0605,-8.34529 -1.5559,-15.24826 -4.48685,-20.70869 -2.93155,-5.53989 -6.58865,-8.2918 -10.97063,-8.25598 z m 53.54255,0.9932 -13.01025,0.10591 0.0205,2.86115 c 1.4948,0.54417 2.47144,1.25153 2.92953,2.1221 0.45752,0.7911 0.69504,2.41865 0.71291,4.8825 l 0.25387,35.05048 c 0.0178,2.46385 -0.1955,4.13449 -0.6409,5.01244 -0.40083,0.79812 -1.36737,1.52124 -2.89869,2.16962 l 0.0211,2.86173 16.19526,-0.13281 -0.0211,-2.86115 c -1.17683,-0.30832 -2.01699,-0.93714 -2.52085,-1.88683 -0.45924,-1.02953 -0.69675,-2.65709 -0.71287,-4.88249 z m 21.83565,2.08662 c 1.94252,-0.0158 3.31177,1.88038 4.1074,5.68909 0.79563,3.80871 1.22881,10.60132 1.29968,20.37722 0.0662,9.14008 -0.27132,15.54082 -1.01279,19.20312 -0.74205,3.58283 -2.10672,5.38261 -4.09441,5.39886 -1.98771,0.0163 -3.40049,-1.68107 -4.2384,-5.09202 -0.79333,-3.49079 -1.22169,-9.60747 -1.28506,-18.35015 -0.076,-10.49121 0.25569,-17.64765 0.99601,-21.46891 0.74029,-3.82126 2.14952,-5.74023 4.22757,-5.75721 z m -75.28346,0.61539 c 1.94253,-0.0158 3.31179,1.88038 4.10742,5.68909 0.79563,3.80871 1.2288,10.60075 1.29968,20.37666 0.0662,9.14007 -0.27133,15.54138 -1.0128,19.20368 -0.74204,3.58283 -2.10727,5.38262 -4.09495,5.39886 -1.98771,0.0163 -3.4005,-1.68107 -4.23841,-5.09202 -0.79333,-3.49079 -1.22169,-9.60747 -1.28508,-18.35015 -0.076,-10.49121 0.25623,-17.64765 0.99655,-21.4689 0.74031,-3.82127 2.14954,-5.74024 4.22759,-5.75722 z m 134.67804,22.38656 0.12502,17.28653 c -1.6467,3.43125 -3.23782,5.15331 -4.77373,5.16586 -1.03904,0.009 -1.88023,-0.70009 -2.52305,-2.12554 -0.64339,-1.50493 -0.9733,-3.44956 -0.99057,-5.83392 -0.0512,-7.07363 2.66943,-11.90457 8.16233,-14.49293 z"
       id="flowRoot8625"
       inkscape:connector-curvature="0" />
  </g>
</svg>
