<?xml version="1.0" encoding="UTF-8" standalone="no"?>
<svg
   xmlns:dc="http://purl.org/dc/elements/1.1/"
   xmlns:cc="http://creativecommons.org/ns#"
   xmlns:rdf="http://www.w3.org/1999/02/22-rdf-syntax-ns#"
   xmlns:svg="http://www.w3.org/2000/svg"
   xmlns="http://www.w3.org/2000/svg"
   xmlns:sodipodi="http://sodipodi.sourceforge.net/DTD/sodipodi-0.dtd"
   xmlns:inkscape="http://www.inkscape.org/namespaces/inkscape"
   height="512pt"
   viewBox="0 0 512 512"
   width="512pt"
   version="1.1"
   id="svg4"
   sodipodi:docname="stat.svg"
   inkscape:version="0.92.5 (2060ec1f9f, 2020-04-08)">
  <metadata
     id="metadata10">
    <rdf:RDF>
      <cc:Work
         rdf:about="">
        <dc:format>image/svg+xml</dc:format>
        <dc:type
           rdf:resource="http://purl.org/dc/dcmitype/StillImage" />
      </cc:Work>
    </rdf:RDF>
  </metadata>
  <defs
     id="defs8" />
  <sodipodi:namedview
     pagecolor="#ffffff"
     bordercolor="#666666"
     borderopacity="1"
     objecttolerance="10"
     gridtolerance="10"
     guidetolerance="10"
     inkscape:pageopacity="0"
     inkscape:pageshadow="2"
     inkscape:window-width="1366"
     inkscape:window-height="662"
     id="namedview6"
     showgrid="false"
     inkscape:zoom="0.70898438"
     inkscape:cx="86.7438"
     inkscape:cy="335.69146"
     inkscape:window-x="0"
     inkscape:window-y="27"
     inkscape:window-maximized="1"
     inkscape:current-layer="svg4" />
  <path
     d="m256 0c-141.484375 0-256 114.496094-256 256 0 141.484375 114.496094 256 256 256 141.484375 0 256-114.496094 256-256 0-141.484375-114.496094-256-256-256zm0 472c-119.378906 0-216-96.609375-216-216 0-119.378906 96.609375-216 216-216 119.378906 0 216 96.609375 216 216 0 119.378906-96.609375 216-216 216zm180-269.332031v76c0 11.046875-8.953125 20-20 20s-20-8.953125-20-20v-27.714844l-72.523438 72.523437c-7.8125 7.808594-20.476562 7.808594-28.285156 0l-92.523437-92.523437-92.523438 92.523437c-7.8125 7.808594-20.472656 7.8125-28.285156 0-7.808594-7.8125-7.808594-20.476562 0-28.285156l106.667969-106.667968c7.8125-7.808594 20.472656-7.808594 28.285156 0l92.523438 92.527343 58.378906-58.382812h-27.714844c-11.046875 0-20-8.953125-20-20s8.953125-20 20-20h76c11.210938 0 20 9.191406 20 20zm0 0"
     id="path2"
     style="fill:#757575;fill-opacity:1" />
</svg>
